# Blender 5.2.2 LTS
# www.blender.org
mtllib Nave_Javier_Alvarado.mtl
o Cube
v 0.800000 0.500000 -1.500000
v 0.800000 -0.500000 -1.500000
v 0.702986 0.480597 1.577611
v 0.800000 -0.500000 1.500000
v -0.800000 0.500000 -1.500000
v -0.800000 -0.500000 -1.500000
v -0.702986 0.480597 1.577611
v -0.800000 -0.500000 1.500000
v -0.800000 -0.500000 -0.500000
v -0.800000 -0.500000 0.500000
v 0.266667 -0.500000 -1.500000
v -0.266667 -0.500000 -1.500000
v 0.720000 0.086667 -1.500000
v 0.720000 -0.086667 -1.500000
v -0.800000 -0.166667 1.500000
v -0.800000 0.166667 1.500000
v 0.800000 0.166667 1.500000
v 0.800000 -0.166667 1.500000
v -0.720000 0.086667 -1.500000
v -0.720000 -0.086667 -1.500000
v 0.266667 0.480597 1.577611
v -0.266667 0.480597 1.577611
v 0.800000 0.500000 -0.500000
v 0.800000 0.500000 0.500000
v -0.266667 -0.500000 1.500000
v 0.266667 -0.500000 1.500000
v -0.800000 0.500000 0.500000
v -0.800000 0.500000 -0.500000
v -0.066667 0.500000 -1.300000
v 0.066667 0.500000 -1.300000
v 0.800000 -0.500000 0.500000
v 0.800000 -0.500000 -0.500000
v -0.266667 -0.086667 -1.500000
v 0.266667 -0.086667 -1.500000
v -0.266667 0.086667 -1.500000
v 0.266667 0.086667 -1.500000
v 0.800000 -0.166667 -0.500000
v 0.800000 -0.166667 0.500000
v 0.800000 0.166667 -0.500000
v 0.800000 0.166667 0.500000
v -0.266667 -0.500000 -0.500000
v -0.266667 -0.500000 0.500000
v 0.266667 -0.500000 -0.500000
v 0.266667 -0.500000 0.500000
v -0.800000 -0.166667 0.500000
v -0.800000 -0.166667 -0.500000
v -0.800000 0.166667 0.500000
v -0.800000 0.166667 -0.500000
v 0.066667 0.500000 -0.500000
v 0.066667 0.500000 0.500000
v -0.066667 0.500000 -0.500000
v -0.066667 0.500000 0.500000
v -0.560000 -0.033333 2.700000
v -0.494030 0.219403 2.622389
v 0.560000 -0.266667 2.700000
v 0.560000 -0.500000 2.700000
v -0.186667 0.200000 2.700000
v 0.186667 -0.500000 2.700000
v -0.560000 -0.500000 2.700000
v -0.560000 -0.266667 2.700000
v 0.494030 0.219403 2.622389
v 0.560000 -0.033333 2.700000
v 0.186667 0.200000 2.700000
v -0.186667 -0.500000 2.700000
v -0.186667 -0.266667 2.700000
v 0.186667 -0.266667 2.700000
v -0.186667 -0.033333 2.700000
v 0.186667 -0.033333 2.700000
v -0.066667 0.500000 1.300000
v -0.800000 0.500000 1.500000
v 0.800000 0.500000 1.500000
v 0.066667 0.500000 1.300000
v 0.560000 0.200000 2.700000
v -0.560000 0.200000 2.700000
v -0.186667 0.219403 2.622389
v 0.186667 0.219403 2.622389
v 0.266667 0.432090 1.565485
v 0.186667 0.170896 2.610262
v -0.186667 0.170896 2.610262
v -0.266667 0.432090 1.565485
v -0.702986 0.432090 1.565485
v 0.702986 0.432090 1.565485
v 0.494030 0.170896 2.610262
v -0.494030 0.170896 2.610262
v 0.266667 0.500000 1.500000
v -0.266667 0.500000 1.500000
v -0.266667 0.500000 -1.500000
v 0.266667 0.500000 -1.500000
v 0.266667 0.500000 0.500000
v 0.266667 0.500000 -0.500000
v -0.266667 0.500000 0.500000
v -0.266667 0.500000 -0.500000
v -0.066667 2.500000 -1.350000
v 0.066667 2.500000 -1.350000
v -0.066667 2.500000 0.150000
v 0.066667 2.500000 0.150000
v 0.066667 2.500000 1.350000
v -0.066667 2.500000 1.350000
v -0.066667 2.500000 -2.550000
v 0.066667 2.500000 -2.550000
v -0.066667 4.000000 0.037500
v 0.066667 4.000000 0.037500
v -0.066667 4.000000 0.562500
v 0.066667 4.000000 0.562500
v 0.066667 4.000000 0.982500
v -0.066667 4.000000 0.982500
v -0.066667 4.000000 -0.382500
v 0.066667 4.000000 -0.382500
v 1.100000 -0.500000 0.500000
v 1.100000 -0.166667 0.500000
v 1.100000 -0.166667 1.500000
v 1.100000 -0.500000 1.500000
v 1.100000 -0.500000 -1.500000
v 1.100000 -0.166667 -1.500000
v 1.100000 -0.166667 -0.500000
v 1.100000 -0.500000 -0.500000
v -1.100000 -0.500000 -0.500000
v -1.100000 -0.166667 -0.500000
v -1.100000 -0.166667 -1.500000
v -1.100000 -0.500000 -1.500000
v -1.100000 -0.500000 1.500000
v -1.100000 -0.166667 1.500000
v -1.100000 -0.166667 0.500000
v -1.100000 -0.500000 0.500000
v -2.007500 -2.500000 0.150000
v -2.007500 -2.500000 1.650000
v 2.007500 -2.500000 -1.350000
v 2.007500 -2.500000 -2.850000
v -2.007500 -2.500000 -2.850000
v -2.007500 -2.500000 -1.350000
v 2.007500 -2.500000 1.650000
v 2.007500 -2.500000 0.150000
v 2.172500 -2.500000 0.150000
v 2.172500 -2.500000 1.650000
v 2.172500 -2.500000 -2.850000
v 2.172500 -2.500000 -1.350000
v -2.172500 -2.500000 -1.350000
v -2.172500 -2.500000 -2.850000
v -2.172500 -2.500000 1.650000
v -2.172500 -2.500000 0.150000
v -3.060750 -4.000000 0.562500
v -3.060750 -4.000000 1.087500
v 3.060750 -4.000000 0.037500
v 3.060750 -4.000000 -0.487500
v -3.060750 -4.000000 -0.487500
v -3.060750 -4.000000 0.037500
v 3.060750 -4.000000 1.087500
v 3.060750 -4.000000 0.562500
v 3.209250 -4.000000 0.562500
v 3.209250 -4.000000 1.087500
v 3.209250 -4.000000 -0.487500
v 3.209250 -4.000000 0.037500
v -3.209250 -4.000000 -0.487500
v -3.209250 -4.000000 1.087500
v -3.209250 -4.000000 0.562500
v -3.209250 -4.000000 0.037500
v 0.800000 0.166667 -1.500000
v 0.800000 -0.166667 -1.500000
v -0.800000 0.166667 -1.500000
v -0.800000 -0.166667 -1.500000
v 0.266667 -0.166667 -1.500000
v -0.266667 -0.166667 -1.500000
v 0.266667 0.166667 -1.500000
v -0.266667 0.166667 -1.500000
v -0.266667 0.086667 -1.200000
v -0.266667 -0.086667 -1.200000
v 0.266667 0.086667 -1.200000
v 0.266667 -0.086667 -1.200000
v 0.720000 0.086667 -1.200000
v 0.720000 -0.086667 -1.200000
v -0.720000 0.086667 -1.200000
v -0.720000 -0.086667 -1.200000
vn -0.0000 1.0000 -0.0000
vn -0.9817 0.0462 -0.1848
vn -1.0000 -0.0000 -0.0000
vn -0.0000 -1.0000 -0.0000
vn 1.0000 -0.0000 -0.0000
vn -0.0000 -0.0000 -1.0000
vn -0.0000 -0.2652 -0.9642
vn -0.8226 0.5686 -0.0000
vn 0.8226 0.5686 -0.0000
vn -0.9806 -0.0000 0.1961
vn 0.9806 -0.0000 0.1961
vn -0.0000 0.2425 -0.9701
vn -0.0000 -0.0000 1.0000
vn -0.0000 0.9701 0.2425
vn -0.0000 -0.2425 0.9701
vn 0.9817 0.0462 -0.1848
vn -0.0000 0.8223 -0.5691
vn -0.0000 -0.0250 0.9997
vn -0.0000 -0.5300 -0.8480
vn -0.0000 0.2380 0.9713
vn 0.8561 -0.5169 -0.0000
vn -0.8561 -0.5169 -0.0000
vn -0.0000 0.0748 0.9972
vn -0.0000 0.3911 -0.9203
vn -0.0000 0.5595 -0.8288
vn -0.0000 0.1724 -0.9850
vn 0.8813 0.4726 -0.0000
vn -0.8813 0.4726 -0.0000
vn 0.8184 -0.5747 -0.0000
vn -0.0000 -0.3511 0.9363
vn -0.0000 -0.6790 -0.7341
vn -0.8184 -0.5747 -0.0000
vn -0.0000 -0.8442 -0.5360
vt 0.791667 0.666667
vt 0.875000 0.666667
vt 0.875000 0.750000
vt 0.791667 0.750000
vt 0.642322 0.750000
vt 0.638129 0.750000
vt 0.541667 0.166667
vt 0.625000 0.166667
vt 0.625000 0.250000
vt 0.541667 0.250000
vt 0.291667 0.666667
vt 0.375000 0.666667
vt 0.375000 0.750000
vt 0.291667 0.750000
vt 0.541667 0.666667
vt 0.625000 0.666667
vt 0.625000 0.750000
vt 0.541667 0.750000
vt 0.541667 0.416667
vt 0.625000 0.416667
vt 0.625000 0.500000
vt 0.541667 0.500000
vt 0.375000 0.416667
vt 0.458333 0.416667
vt 0.458333 0.500000
vt 0.375000 0.500000
vt 0.478333 0.487500
vt 0.478333 0.416667
vt 0.375000 0.250000
vt 0.458333 0.250000
vt 0.458333 0.333333
vt 0.375000 0.333333
vt 0.478333 0.333333
vt 0.521667 0.262500
vt 0.521667 0.333333
vt 0.625000 0.333333
vt 0.541667 0.333333
vt 0.458333 0.666667
vt 0.458333 0.750000
vt 0.541667 0.583333
vt 0.458333 0.583333
vt 0.625000 0.583333
vt 0.125000 0.666667
vt 0.208333 0.666667
vt 0.208333 0.750000
vt 0.125000 0.750000
vt 0.125000 0.500000
vt 0.208333 0.500000
vt 0.208333 0.583333
vt 0.125000 0.583333
vt 0.291667 0.500000
vt 0.291667 0.583333
vt 0.375000 0.583333
vt 0.375000 0.083333
vt 0.375000 0.166667
vt 0.458333 0.166667
vt 0.458333 0.000000
vt 0.541667 0.000000
vt 0.541667 0.083333
vt 0.458333 0.083333
vt 0.625000 0.000000
vt 0.625000 0.083333
vt 0.375000 0.000000
vt 0.857678 0.750000
vt 0.790588 0.750000
vt 0.709412 0.750000
vt 0.708333 0.666667
vt 0.708333 0.750000
vt 0.739583 0.733333
vt 0.739583 0.666667
vt 0.708333 0.500000
vt 0.708333 0.583333
vt 0.739583 0.583333
vt 0.760417 0.516667
vt 0.760417 0.583333
vt 0.791667 0.500000
vt 0.875000 0.500000
vt 0.875000 0.583333
vt 0.791667 0.583333
vt 0.541667 0.916667
vt 0.625000 0.916667
vt 0.625000 1.000000
vt 0.541667 1.000000
vt 0.375000 0.916667
vt 0.458333 0.916667
vt 0.458333 1.000000
vt 0.375000 1.000000
vt 0.458333 0.833333
vt 0.375000 0.833333
vt 0.541667 0.833333
vt 0.625000 0.833333
vt 0.861872 0.750000
vt 0.792526 0.750000
vt 0.707474 0.750000
vt 0.760417 0.733333
vt 0.739583 0.516667
vt 0.760417 0.666667
vt 0.521667 0.487500
vt 0.478333 0.262500
vt 0.521667 0.416667
s 0
usemtl Material
f 91/1/1 27/2/1 70/3/1 86/4/1
f 61/5/2 3/6/2 82/6/2 83/5/2
f 48/7/3 28/8/3 5/9/3 159/10/3
f 44/11/4 31/12/4 4/13/4 26/14/4
f 40/15/5 24/16/5 71/17/5 17/18/5
f 163/19/6 88/20/6 1/21/6 157/22/6
f 11/23/6 161/24/6 158/25/6 2/26/6
f 14/27/1 34/28/1 168/28/1 170/27/1
f 6/29/6 160/30/6 162/31/6 12/32/6
f 12/32/6 162/31/6 161/24/6 11/23/6
f 34/28/1 33/33/1 166/33/1 168/28/1
f 19/34/4 35/35/4 165/35/4 171/34/4
f 159/10/6 5/9/6 87/36/6 164/37/6
f 164/37/6 87/36/6 88/20/6 163/19/6
f 38/38/5 40/15/5 17/18/5 18/39/5
f 132/12/7 133/12/7 149/12/7 148/12/7
f 158/25/5 157/22/5 39/40/5 37/41/5
f 37/41/5 39/40/5 40/15/5 38/38/5
f 157/22/5 1/21/5 23/42/5 39/40/5
f 39/40/5 23/42/5 24/16/5 40/15/5
f 10/43/4 42/44/4 25/45/4 8/46/4
f 42/44/4 44/11/4 26/14/4 25/45/4
f 6/47/4 12/48/4 41/49/4 9/50/4
f 9/50/4 41/49/4 42/44/4 10/43/4
f 12/48/4 11/51/4 43/52/4 41/49/4
f 41/49/4 43/52/4 44/11/4 42/44/4
f 11/51/4 2/26/4 32/53/4 43/52/4
f 43/52/4 32/53/4 31/12/4 44/11/4
f 140/54/8 137/55/8 156/55/8 155/54/8
f 46/56/3 48/7/3 159/10/3 160/30/3
f 133/12/9 134/13/9 150/13/9 149/12/9
f 15/57/3 16/58/3 47/59/3 45/60/3
f 45/60/3 47/59/3 48/7/3 46/56/3
f 16/58/3 70/61/3 27/62/3 47/59/3
f 47/59/3 27/62/3 28/8/3 48/7/3
f 15/57/10 8/63/10 59/63/10 60/57/10
f 8/46/4 25/45/4 64/45/4 59/46/4
f 18/39/11 17/18/11 62/18/11 55/39/11
f 4/13/11 18/39/11 55/39/11 56/13/11
f 54/64/12 75/65/12 79/65/12 84/64/12
f 70/61/10 16/58/10 53/58/10 74/61/10
f 17/18/11 71/17/11 73/17/11 62/18/11
f 75/65/12 76/66/12 78/66/12 79/65/12
f 24/16/1 89/67/1 85/68/1 71/17/1
f 72/69/5 50/70/5 96/70/5 97/69/5
f 1/21/1 88/71/1 90/72/1 23/42/1
f 23/42/1 90/72/1 89/67/1 24/16/1
f 50/70/5 49/73/5 94/73/5 96/70/5
f 29/74/3 51/75/3 93/75/3 99/74/3
f 87/76/1 5/77/1 28/78/1 92/79/1
f 92/79/1 28/78/1 27/2/1 91/1/1
f 67/80/13 57/81/13 74/82/13 53/83/13
f 64/84/13 65/85/13 60/86/13 59/87/13
f 65/85/13 67/80/13 53/83/13 60/86/13
f 56/13/13 55/39/13 66/88/13 58/89/13
f 58/89/13 66/88/13 65/85/13 64/84/13
f 55/39/13 62/18/13 68/90/13 66/88/13
f 66/88/13 68/90/13 67/80/13 65/85/13
f 62/18/13 73/17/13 63/91/13 68/90/13
f 68/90/13 63/91/13 57/81/13 67/80/13
f 26/14/4 4/13/4 56/13/4 58/14/4
f 25/45/4 26/14/4 58/14/4 64/45/4
f 16/58/10 15/57/10 60/57/10 53/58/10
f 7/92/14 22/93/14 86/4/14 70/3/14
f 21/94/14 3/6/14 71/17/14 85/68/14
f 22/93/14 21/94/14 85/68/14 86/4/14
f 3/6/14 61/5/14 73/17/14 71/17/14
f 54/64/14 7/92/14 70/3/14 74/3/14
f 75/65/14 54/64/14 74/3/14 57/4/14
f 61/5/14 76/66/14 63/68/14 73/17/14
f 76/66/14 75/65/14 57/4/14 63/68/14
f 77/94/14 80/93/14 79/65/14 78/66/14
f 82/6/14 77/94/14 78/66/14 83/5/14
f 80/93/14 81/92/14 84/64/14 79/65/14
f 3/6/15 21/94/15 77/94/15 82/6/15
f 76/66/12 61/5/12 83/5/12 78/66/12
f 7/92/16 54/64/16 84/64/16 81/92/16
f 21/94/15 22/93/15 80/93/15 77/94/15
f 22/93/15 7/92/15 81/92/15 80/93/15
f 72/69/1 69/95/1 86/4/1 85/68/1
f 29/74/1 30/96/1 88/71/1 87/76/1
f 50/70/1 72/69/1 85/68/1 89/67/1
f 30/96/1 49/73/1 90/72/1 88/71/1
f 49/73/1 50/70/1 89/67/1 90/72/1
f 69/95/1 52/97/1 91/1/1 86/4/1
f 51/75/1 29/74/1 87/76/1 92/79/1
f 52/97/1 51/75/1 92/79/1 91/1/1
f 99/74/3 93/75/3 101/75/3 107/74/3
f 100/96/17 99/74/17 107/74/17 108/96/17
f 94/73/5 100/96/5 108/96/5 102/73/5
f 69/95/18 72/69/18 97/69/18 98/95/18
f 51/75/3 52/97/3 95/97/3 93/75/3
f 52/97/3 69/95/3 98/95/3 95/97/3
f 49/73/5 30/96/5 100/96/5 94/73/5
f 30/96/19 29/74/19 99/74/19 100/96/19
f 104/70/1 103/97/1 106/95/1 105/69/1
f 108/96/1 107/74/1 101/75/1 102/73/1
f 102/73/1 101/75/1 103/97/1 104/70/1
f 96/70/5 94/73/5 102/73/5 104/70/5
f 97/69/5 96/70/5 104/70/5 105/69/5
f 98/95/20 97/69/20 105/69/20 106/95/20
f 93/75/3 95/97/3 103/97/3 101/75/3
f 95/97/3 98/95/3 106/95/3 103/97/3
f 109/12/5 110/38/5 111/39/5 112/13/5
f 38/38/6 110/38/6 109/12/6 31/12/6
f 18/39/1 111/39/1 110/38/1 38/38/1
f 4/13/13 112/13/13 111/39/13 18/39/13
f 6/47/21 9/50/21 130/50/21 129/47/21
f 113/26/5 114/25/5 115/41/5 116/53/5
f 158/25/6 114/25/6 113/26/6 2/26/6
f 37/41/1 115/41/1 114/25/1 158/25/1
f 32/53/6 37/41/6 115/41/6 116/53/6
f 4/13/22 31/12/22 132/12/22 131/13/22
f 116/53/5 115/41/5 110/38/5 109/12/5
f 38/38/1 110/38/1 115/41/1 37/41/1
f 112/13/23 4/13/23 131/13/23 134/13/23
f 117/55/3 118/56/3 119/30/3 120/29/3
f 46/56/6 9/55/6 117/55/6 118/56/6
f 160/30/1 119/30/1 118/56/1 46/56/1
f 6/29/6 120/29/6 119/30/6 160/30/6
f 9/55/24 130/55/24 137/55/24 117/55/24
f 121/63/3 122/57/3 123/60/3 124/54/3
f 15/57/13 122/57/13 121/63/13 8/63/13
f 45/60/1 123/60/1 122/57/1 15/57/1
f 10/54/6 124/54/6 123/60/6 45/60/6
f 32/53/22 2/26/22 128/26/22 127/53/22
f 124/54/3 123/60/3 118/56/3 117/55/3
f 46/56/1 118/56/1 123/60/1 45/60/1
f 8/63/23 121/63/23 139/63/23 126/63/23
f 116/53/24 136/53/24 127/53/24 32/53/24
f 31/12/22 32/53/22 127/53/22 132/12/22
f 9/50/21 10/43/21 125/43/21 130/50/21
f 120/29/25 6/29/25 129/29/25 138/29/25
f 124/54/26 10/54/26 125/54/26 140/54/26
f 10/43/21 8/46/21 126/46/21 125/43/21
f 109/12/27 112/13/27 134/13/27 133/12/27
f 113/26/27 116/53/27 136/53/27 135/26/27
f 116/53/27 109/12/27 133/12/27 136/53/27
f 117/55/28 120/29/28 138/29/28 137/55/28
f 31/12/26 109/12/26 133/12/26 132/12/26
f 121/63/28 124/54/28 140/54/28 139/63/28
f 2/26/25 113/26/25 135/26/25 128/26/25
f 124/54/28 117/55/28 137/55/28 140/54/28
f 141/54/4 155/54/4 156/55/4 146/55/4
f 142/63/4 154/63/4 155/54/4 141/54/4
f 146/55/4 156/55/4 153/29/4 145/29/4
f 143/53/4 152/53/4 149/12/4 148/12/4
f 144/26/4 151/26/4 152/53/4 143/53/4
f 148/12/4 149/12/4 150/13/4 147/13/4
f 125/43/29 126/46/29 142/46/29 141/43/29
f 137/55/8 138/29/8 153/29/8 156/55/8
f 134/13/30 131/13/30 147/13/30 150/13/30
f 137/55/31 130/55/31 146/55/31 156/55/31
f 127/53/32 128/26/32 144/26/32 143/53/32
f 135/26/9 136/53/9 152/53/9 151/26/9
f 129/47/29 130/50/29 146/50/29 145/47/29
f 138/29/33 129/29/33 145/29/33 153/29/33
f 128/26/33 135/26/33 151/26/33 144/26/33
f 130/50/29 125/43/29 141/43/29 146/50/29
f 139/63/8 140/54/8 155/54/8 154/63/8
f 136/53/31 152/53/31 143/53/31 127/53/31
f 131/13/32 132/12/32 148/12/32 147/13/32
f 126/63/30 139/63/30 154/63/30 142/63/30
f 136/53/9 133/12/9 149/12/9 152/53/9
f 132/12/32 127/53/32 143/53/32 148/12/32
f 140/54/7 125/54/7 141/54/7 155/54/7
f 14/27/6 13/98/6 157/22/6 158/25/6
f 19/34/6 20/99/6 160/30/6 159/10/6
f 34/28/6 14/27/6 158/25/6 161/24/6
f 20/99/6 33/33/6 162/31/6 160/30/6
f 33/33/6 34/28/6 161/24/6 162/31/6
f 13/98/6 36/100/6 163/19/6 157/22/6
f 35/35/6 19/34/6 159/10/6 164/37/6
f 36/100/6 35/35/6 164/37/6 163/19/6
f 168/28/6 167/100/6 169/98/6 170/27/6
f 172/99/6 171/34/6 165/35/6 166/33/6
f 166/33/6 165/35/6 167/100/6 168/28/6
f 13/98/3 14/27/3 170/27/3 169/98/3
f 35/35/4 36/100/4 167/100/4 165/35/4
f 36/100/4 13/98/4 169/98/4 167/100/4
f 33/33/1 20/99/1 172/99/1 166/33/1
f 20/99/5 19/34/5 171/34/5 172/99/5
